<?xml version="1.0" encoding="UTF-8"?>
<svg id="a" xmlns="http://www.w3.org/2000/svg" viewBox="0 0 304 276"><defs><style>.b{fill:#fff;}</style></defs><path class="b" d="M175.94,112.14l-4.39,4.75-43.85,47.36h-24.82L213.98,44.27l2.28-2.23h-42.12l-44,47.52-29.44-42.05h22.28l9.39,13.4c-.32,.74-.5,1.54-.5,2.4,0,3.33,2.69,6.02,6.02,6.02s6.02-2.69,6.02-6.02-2.69-6.02-6.02-6.02c-.11,0-.22,0-.33,.02l-10.69-15.27h-37.72l36.59,52.26,3.71,5.3,4.4-4.75,43.84-47.34h24.67l-113.15,122.2h42.04l44.02-47.54,29.45,42.06h-22.28l-9.22-13.18c.32-.74,.51-1.56,.51-2.42,0-3.33-2.69-6.02-6.02-6.02s-6.02,2.69-6.02,6.02,2.69,6.02,6.02,6.02c.1,0,.2,0,.3-.01l10.55,15.06h37.72l-36.61-52.28-3.71-5.3h0Z"/><g><path class="b" d="M106.62,233.39h-14.47c-1.42,0-2.58-1.16-2.58-2.58v-14.86h5.15v12.29h11.9c2.43,0,4.4-1.97,4.4-4.4s-2.21-4.4-5.25-4.4c-1.42,0-2.58-1.16-2.58-2.58s1.15-2.58,2.58-2.58,3.98-.37,3.98-2.86c0-2.19-1.79-3.98-3.98-3.98h-16.15v-5.15h16.15c5.04,0,9.14,4.1,9.14,9.14,0,2.13-.73,3.96-2.02,5.32,2.05,1.72,3.28,4.22,3.28,7.09,0,5.27-4.28,9.56-9.56,9.56h0Z"/><path class="b" d="M135.29,233.95c-8.89,0-16.11-7.23-16.11-16.11s7.23-16.11,16.11-16.11,16.11,7.23,16.11,16.11-7.23,16.11-16.11,16.11Zm0-27.07c-6.04,0-10.96,4.92-10.96,10.96s4.92,10.96,10.96,10.96,10.96-4.92,10.96-10.96-4.92-10.96-10.96-10.96Z"/><path class="b" d="M170.57,219.22h-13.59c-1.42,0-2.58,1.15-2.58,2.58v11.95h5.15v-9.37h9.96l5.66,9.37h6.02l-6.55-10.84c3-1.94,5.51-5.41,5.48-9.64-.04-5.99-4.96-10.97-11.21-11.34h-14.47v5.15h14.22c3.46,.24,6.28,3.03,6.29,6.23,.01,2.8-2.19,5.15-4.4,5.92h0Z"/><path class="b" d="M209.97,223.02c-1.85,3.44-5.48,5.78-9.65,5.78-6.04,0-10.96-4.92-10.96-10.96s4.92-10.96,10.96-10.96c4.14,0,7.74,2.3,9.61,5.7h5.62c-2.19-6.31-8.19-10.85-15.22-10.85-8.88,0-16.11,7.23-16.11,16.11s7.23,16.11,16.11,16.11c7.07,0,13.09-4.58,15.25-10.93h-5.6Z"/><path class="b" d="M213.26,220.41h-11.68c-1.42,0-2.58-1.16-2.58-2.58s1.16-2.58,2.58-2.58h11.68c1.42,0,2.58,1.16,2.58,2.58s-1.15,2.58-2.58,2.58Z"/></g></svg>